<?xml version="1.0" encoding="utf-8"?>
<!-- Generator: Adobe Illustrator 17.1.0, SVG Export Plug-In . SVG Version: 6.00 Build 0)  -->
<!DOCTYPE svg PUBLIC "-//W3C//DTD SVG 1.0//EN" "http://www.w3.org/TR/2001/REC-SVG-20010904/DTD/svg10.dtd">
<svg version="1.0" id="Layer_1" xmlns="http://www.w3.org/2000/svg" xmlns:xlink="http://www.w3.org/1999/xlink" x="0px" y="0px"
	 viewBox="20 0 60 80.184" enable-background="new 20 0 60 80.184" xml:space="preserve">
<g>
	<path fill="#EB4F2D" d="M39.929,66.453c-0.024-0.037-0.141,0.02-0.346-0.301c-1.932-3.032-11.257-17.731-15.714-25.288
		c-6.484-10.992,0.678-25.396,13.326-27.189c10.65-1.509,20.225,6.016,21.147,16.697c0.318,3.684-0.277,7.254-2.251,10.449
		c-4.763,7.708-13.996,22.457-15.835,25.372C40.056,66.512,39.938,66.441,39.929,66.453z M30.191,31.911
		c-0.018,5.378,4.309,9.786,9.653,9.831c5.405,0.046,9.854-4.342,9.881-9.748c0.027-5.382-4.355-9.803-9.733-9.818
		C34.586,22.162,30.209,26.509,30.191,31.911z"/>
	<path fill="#EB4F2D" d="M39.925,38.442c-3.585-0.015-6.498-2.955-6.47-6.529c0.028-3.548,2.945-6.454,6.488-6.464
		c3.588-0.01,6.52,2.961,6.49,6.578C46.404,35.581,43.487,38.457,39.925,38.442z"/>
</g>
</svg>
