<?xml version="1.0" encoding="utf-8"?>
<!-- Generator: Adobe Illustrator 17.1.0, SVG Export Plug-In . SVG Version: 6.00 Build 0)  -->
<!DOCTYPE svg PUBLIC "-//W3C//DTD SVG 1.0//EN" "http://www.w3.org/TR/2001/REC-SVG-20010904/DTD/svg10.dtd">
<svg version="1.0" id="Layer_1" xmlns="http://www.w3.org/2000/svg" xmlns:xlink="http://www.w3.org/1999/xlink" x="0px" y="0px"
	 viewBox="0 0 79.857 80.184" enable-background="new 0 0 79.857 80.184" xml:space="preserve">
<g>
	<path fill="#EB4F2D" d="M57.059,60.817c-2.186,1.48-5.851,2.961-10.504,2.961c-5.71,0-10.786-2.186-14.311-6.274
		c-2.679-2.961-4.441-7.05-5.076-12.125h-4.371v-3.454h4.018c0-0.353,0-0.705,0-1.058c0-1.128,0.071-2.185,0.141-3.172h-4.159V34.17
		h4.652c0.846-4.935,2.961-9.023,5.781-11.914c3.595-3.736,8.178-5.851,13.958-5.851c4.159,0,7.402,1.198,9.375,2.256l-1.41,4.653
		c-1.763-1.058-4.723-1.974-7.896-1.974c-3.807,0-6.909,1.34-9.306,3.877c-2.115,2.044-3.524,5.217-4.229,8.953h19.668v3.524H33.09
		c-0.07,0.917-0.141,1.974-0.141,2.961c0,0.423,0,0.775,0,1.269h20.443v3.454h-19.95c0.564,4.089,1.974,7.12,3.877,9.235
		c2.608,2.75,6.133,4.089,9.94,4.089c3.736,0,6.979-1.41,8.601-2.326L57.059,60.817z"/>
</g>
</svg>
