<?xml version="1.0" encoding="utf-8"?>
<!-- Generator: Adobe Illustrator 17.1.0, SVG Export Plug-In . SVG Version: 6.00 Build 0)  -->
<!DOCTYPE svg PUBLIC "-//W3C//DTD SVG 1.0//EN" "http://www.w3.org/TR/2001/REC-SVG-20010904/DTD/svg10.dtd">
<svg version="1.0" id="Layer_1" xmlns="http://www.w3.org/2000/svg" xmlns:xlink="http://www.w3.org/1999/xlink" x="0px" y="0px"
	 viewBox="0 0 79.857 80.184" enable-background="new 0 0 79.857 80.184" xml:space="preserve">
<g>
	<path fill="#EB4F2D" d="M39.929,16.114c13.43,0.289,23.831,10.635,23.802,24.058c-0.029,13.42-10.447,23.901-23.811,23.897
		c-13.587-0.004-23.823-10.821-23.794-23.997C16.155,26.893,26.42,16.386,39.929,16.114z M39.737,21.946
		c-9.496-0.208-17.944,7.935-17.929,18.202c0.016,10.263,8.461,18.18,17.89,18.196c9.659,0.017,17.965-8.119,17.974-18.202
		C57.681,30.023,49.359,21.743,39.737,21.946z"/>
	<path fill="#EB4F2D" d="M42.803,43.099c-1.674,0-3.348-0.015-5.022,0.008c-0.604,0.008-0.728-0.2-0.72-0.829
		c0.059-4.481-0.033-8.963,0-13.444c0.004-0.597,0.278-0.775,0.827-0.767c1.315,0.018,2.631,0.026,3.946-0.003
		c0.649-0.015,0.814,0.287,0.81,0.873c-0.017,2.391-0.011,4.783-0.003,7.174c0.003,1.09,0.094,1.177,1.177,1.182
		c1.315,0.007,2.631,0.022,3.946-0.006c0.599-0.013,0.872,0.172,0.858,0.814c-0.031,1.404-0.025,2.81-0.003,4.215
		c0.009,0.577-0.216,0.798-0.793,0.791C46.151,43.085,44.477,43.099,42.803,43.099z"/>
</g>
</svg>
