<?xml version="1.0" encoding="utf-8"?>
<!-- Generator: Adobe Illustrator 17.1.0, SVG Export Plug-In . SVG Version: 6.00 Build 0)  -->
<!DOCTYPE svg PUBLIC "-//W3C//DTD SVG 1.0//EN" "http://www.w3.org/TR/2001/REC-SVG-20010904/DTD/svg10.dtd">
<svg version="1.0" id="Layer_1" xmlns="http://www.w3.org/2000/svg" xmlns:xlink="http://www.w3.org/1999/xlink" x="0px" y="0px"
	 viewBox="0 0 40 54" enable-background="new 0 0 40 54" xml:space="preserve">
	<path fill="#71B8ED" d="M20.097,4.4C10.474,4.424,2.729,12.251,2.911,21.618c0.059,3.032,1.347,5.717,2.723,8.327
		c3.704,7.025,8.642,13.176,13.728,19.219c0.44,0.523,0.722,0.637,1.223,0.043c5.143-6.105,10.129-12.326,13.857-19.432
		c1.488-2.836,2.731-5.768,2.646-9.1C36.89,12.903,30.462,5.694,22.741,4.629C21.793,4.498,20.852,4.36,20.097,4.4z"/>
	<path fill="#FEFEFE" d="M19.917,10.117c-6.345,0.018-11.326,5.072-11.296,11.461c0.029,6.186,5.23,11.3,11.444,11.25
		c6.298-0.05,11.326-5.18,11.295-11.522C31.328,15.062,26.253,10.099,19.917,10.117z"/>
</svg>
