<?xml version="1.0" encoding="utf-8"?>
<!-- Generator: Adobe Illustrator 17.1.0, SVG Export Plug-In . SVG Version: 6.00 Build 0)  -->
<!DOCTYPE svg PUBLIC "-//W3C//DTD SVG 1.0//EN" "http://www.w3.org/TR/2001/REC-SVG-20010904/DTD/svg10.dtd">
<svg version="1.0" id="Layer_1" xmlns="http://www.w3.org/2000/svg" xmlns:xlink="http://www.w3.org/1999/xlink" x="0px" y="0px"
	 viewBox="0 0 54 54" enable-background="new 0 0 54 54" xml:space="preserve">
<g>
	<path fill="#EA4F2D" d="M43.555,40.972c-0.089-1.672-0.501-3.261-1.224-4.788c-0.33-0.697-0.636-0.786-1.336-0.472
		c-4.327,1.943-8.683,3.82-13.012,5.759c-0.688,0.308-1.244,0.329-1.945,0.016c-4.362-1.949-8.756-3.825-13.115-5.781
		c-0.742-0.333-1.013-0.146-1.307,0.513c-0.73,1.636-1.145,3.329-1.209,5.122c-0.021,0.585,0.177,0.861,0.714,1.07
		c5.126,2.004,10.244,4.028,15.358,6.063c0.391,0.156,0.706,0.131,1.085-0.02c5.082-2.021,10.162-4.048,15.264-6.016
		C43.633,42.127,43.645,41.63,43.555,40.972z"/>
	<path fill="#EA4F2E" d="M4.942,38.385c0,0.069-0.005,0.139,0.001,0.207C5.275,42.55,4.6,46.368,3.316,50.094
		c-0.24,0.695-0.091,0.929,0.656,0.904c1.278-0.042,2.558-0.028,3.837-0.004c0.604,0.011,0.962-0.071,0.649-0.798
		c-0.148-0.345-0.164-0.746-0.301-1.097c-1.893-4.86-1.308-9.945-1.336-14.968c-0.005-0.903-0.269-1.361-1.112-1.675
		c-0.67-0.249-0.777-0.073-0.772,0.534C4.952,34.789,4.942,36.587,4.942,38.385z"/>
	<g>
		<path fill="#EA4F2D" d="M51.601,28.322c-5.92-2.601-11.841-5.2-17.76-7.803c-2.026-0.891-4.06-1.766-6.068-2.696
			c-0.555-0.257-0.994-0.246-1.55,0c-7.937,3.513-15.886,7.001-23.831,10.495c0,0,0,0,0,0c-0.14,0.181-0.462,0.243-0.378,0.572
			c3.653,1.402,7.18,3.095,10.766,4.654c4.444,1.933,8.875,3.897,13.296,5.882c0.658,0.295,1.19,0.292,1.849-0.001
			c7.658-3.396,15.329-6.763,22.998-10.134c0.347-0.152,0.709-0.268,1.064-0.401c0,0,0,0,0,0
			C52.069,28.558,51.746,28.5,51.601,28.322z"/>
	</g>
</g>
</svg>
