<?xml version="1.0" encoding="utf-8"?>
<!-- Generator: Adobe Illustrator 17.1.0, SVG Export Plug-In . SVG Version: 6.00 Build 0)  -->
<!DOCTYPE svg PUBLIC "-//W3C//DTD SVG 1.0//EN" "http://www.w3.org/TR/2001/REC-SVG-20010904/DTD/svg10.dtd">
<svg version="1.0" id="Layer_1" xmlns="http://www.w3.org/2000/svg" xmlns:xlink="http://www.w3.org/1999/xlink" x="0px" y="0px"
	 viewBox="0 0 54 35.683" enable-background="new 0 0 54 35.683" xml:space="preserve">
<path fill="#98D361" d="M22.241,2.426c0.65,0,1.188,0.204,1.611,0.61c0.423,0.407,0.635,0.92,0.635,1.538
	c0,0.977-0.619,1.791-1.855,2.441c-2.963,1.563-5.127,3.076-6.494,4.541c-1.27,1.4-1.904,2.425-1.904,3.076
	c0,0.619,0.488,0.993,1.465,1.123l0.586,0.049l0.781,0.098c2.115,0.293,3.824,1.262,5.127,2.905c1.302,1.644,1.953,3.654,1.953,6.03
	c0,2.377-0.814,4.46-2.441,6.25c-1.823,1.986-4.184,2.979-7.08,2.979c-2.8,0-5.176-1.09-7.129-3.271
	c-2.051-2.213-3.076-4.997-3.076-8.35c0-2.962,1.025-6.03,3.076-9.204s4.72-5.835,8.008-7.983
	C18.367,3.37,20.613,2.426,22.241,2.426z M45.58,2.426c0.65,0,1.188,0.204,1.611,0.61c0.423,0.407,0.635,0.92,0.635,1.538
	c0,0.977-0.619,1.791-1.855,2.441c-2.963,1.563-5.127,3.076-6.494,4.541c-1.27,1.4-1.904,2.425-1.904,3.076
	c0,0.619,0.488,0.993,1.465,1.123l0.586,0.049l0.781,0.098c2.115,0.293,3.824,1.262,5.127,2.905c1.302,1.644,1.953,3.654,1.953,6.03
	c0,2.377-0.814,4.46-2.441,6.25c-1.823,1.986-4.184,2.979-7.08,2.979c-2.8,0-5.176-1.09-7.129-3.271
	c-2.051-2.213-3.076-4.997-3.076-8.35c0-2.962,1.025-6.03,3.076-9.204s4.72-5.835,8.008-7.983C41.706,3.37,43.952,2.426,45.58,2.426
	z"/>
</svg>
