<?xml version="1.0" encoding="utf-8"?>
<!-- Generator: Adobe Illustrator 17.1.0, SVG Export Plug-In . SVG Version: 6.00 Build 0)  -->
<!DOCTYPE svg PUBLIC "-//W3C//DTD SVG 1.0//EN" "http://www.w3.org/TR/2001/REC-SVG-20010904/DTD/svg10.dtd">
<svg version="1.0" id="Layer_1" xmlns="http://www.w3.org/2000/svg" xmlns:xlink="http://www.w3.org/1999/xlink" x="0px" y="0px"
	 viewBox="0 0 100 100" enable-background="new 0 0 100 100" xml:space="preserve">
<g>
	<path d="M70.958,38.88c3.463-3.87,4.503-4.259,9.423-3.141c0.595,0.135,1.188,1.008,1.472,1.671
		c6.409,14.974,4.989,29.158-4.999,42.07c-7.626,9.857-18.077,14.762-30.482,15.21C26.051,95.425,8.047,79.914,5.589,59.75
		C2.951,38.108,16.821,18.924,38.215,14.909c8.319-1.561,16.441-0.527,24.176,3.077c0.859,0.4,1.379,0.827,1.372,1.906
		c-0.01,1.609,0.285,3.22,0.279,4.829c-0.003,0.657-0.295,1.453-0.729,1.943c-2.039,2.302-2.073,2.272-4.841,0.927
		c-18.288-8.891-39.79,2.649-42.616,22.873c-2.388,17.09,10.329,32.635,27.609,33.749C60.767,85.328,75.32,71.717,75.363,54.38
		C75.376,49.325,73.99,44.418,70.958,38.88z"/>
	<path d="M63.217,46.397c4.149,7.719,1.362,18.358-6.018,23.845c-7.885,5.864-18.758,5.077-25.706-1.86
		c-6.859-6.848-7.666-17.765-1.983-25.565c6.035-8.284,16.896-9.742,23.925-6.214c-2.274,2.268-4.443,4.562-6.779,6.671
		c-0.595,0.537-1.712,0.559-2.608,0.691c-7.738,1.137-11.704,9.535-7.603,16.134c2.431,3.911,7.126,5.783,11.629,4.638
		c4.434-1.128,7.694-5.136,7.953-9.697c0.036-0.632,0.154-1.422,0.549-1.846C58.689,50.923,60.901,48.746,63.217,46.397z"/>
	<path d="M80.996,13.456c2.641-2.765,4.993-5.66,8.252-1.389c2.399,3.144-0.942,4.262-2.159,6.453
		c2.483,0.27,4.81,0.523,7.643,0.831c-0.751,0.965-1.096,1.515-1.543,1.965c-2.885,2.913-5.896,5.708-8.655,8.734
		c-1.934,2.122-4.187,2.932-6.843,2.309c-3.128-0.734-5.28,0.249-7.477,2.58c-5.621,5.964-11.574,11.613-17.304,17.477
		c-1.495,1.53-3.245,1.786-5.101,1.575c-0.685-0.078-1.735-0.887-1.83-1.487c-0.295-1.873-0.338-3.734,1.284-5.324
		c6.385-6.263,12.658-12.64,19.019-18.927c0.98-0.969,1.343-1.906,1.125-3.289c-0.28-1.77-0.495-3.607-0.321-5.374
		c0.124-1.263,0.645-2.727,1.49-3.636c3.166-3.412,6.528-6.644,9.847-9.913c0.359-0.354,0.915-0.508,1.38-0.755
		c0.213,0.536,0.553,1.058,0.616,1.612C80.647,8.901,80.782,10.915,80.996,13.456z"/>
</g>
</svg>
