<?xml version="1.0" encoding="utf-8"?>
<!-- Generator: Adobe Illustrator 17.1.0, SVG Export Plug-In . SVG Version: 6.00 Build 0)  -->
<!DOCTYPE svg PUBLIC "-//W3C//DTD SVG 1.0//EN" "http://www.w3.org/TR/2001/REC-SVG-20010904/DTD/svg10.dtd">
<svg version="1.0" id="Layer_1" xmlns="http://www.w3.org/2000/svg" xmlns:xlink="http://www.w3.org/1999/xlink" x="0px" y="0px"
	 viewBox="0 0 54 54" enable-background="new 0 0 54 54" xml:space="preserve">
<path fill="#EA4F2D" d="M46.337,7.157c-6.123,2.041-18.369,1.587-18.369,1.587l0.052,0.028c-0.188-0.006-0.372-0.028-0.562-0.028
	c-10.081,0-18.284,8.202-18.284,18.284c0,5.059,2.067,9.642,5.398,12.956c-1.311,2.968-12.266,8.644-6.91,6.859
	c6.123-2.041,18.369-1.587,18.369-1.587l-0.031-0.017c0.482,0.038,0.965,0.074,1.457,0.074c10.081,0,18.284-8.202,18.284-18.284
	c0-5.358-2.331-10.169-6.015-13.517C41.879,10.456,51.404,5.468,46.337,7.157z M42.113,27.029c0,8.081-6.575,14.656-14.656,14.656
	s-14.656-6.575-14.656-14.656s6.575-14.656,14.656-14.656S42.113,18.948,42.113,27.029z"/>
</svg>
