<?xml version="1.0" encoding="utf-8"?>
<!-- Generator: Adobe Illustrator 17.1.0, SVG Export Plug-In . SVG Version: 6.00 Build 0)  -->
<!DOCTYPE svg PUBLIC "-//W3C//DTD SVG 1.0//EN" "http://www.w3.org/TR/2001/REC-SVG-20010904/DTD/svg10.dtd">
<svg version="1.0" id="Layer_1" xmlns="http://www.w3.org/2000/svg" xmlns:xlink="http://www.w3.org/1999/xlink" x="0px" y="0px"
	 viewBox="0 0 200 200" enable-background="new 0 0 200 200" xml:space="preserve">
<path fill="#F4B83D" d="M43.988,184.861c0.865-7.365,5.427-44.058,7.045-55.589c0.5-3.567-0.358-6.173-2.981-8.874
	C35.178,107.135,22.558,93.624,9.186,79.501c9.608-1.864,47.816-9.271,57.959-11.116c1.953-0.355,3.299-1.004,4.279-2.853
	c3.818-7.202,23.242-41.67,28.158-50.394c2.21,0.891,19.732,32.955,27.451,47.493c2.224,4.188,5.144,5.759,9.516,6.544
	c17.327,3.109,53.089,10.112,54.264,10.399c-4.821,5.172-29.939,32.133-38.351,40.424c-3.147,3.102-3.77,6.217-3.225,10.234
	c2.301,16.957,6.783,52.863,6.865,54.618c-4.769-2.135-39.032-17.797-51.782-23.887c-2.94-1.404-5.389-1.728-8.328-0.053
	C92.121,163.117,57.533,178.763,43.988,184.861z"/>
</svg>
