<?xml version="1.0" encoding="utf-8"?>
<!-- Generator: Adobe Illustrator 17.1.0, SVG Export Plug-In . SVG Version: 6.00 Build 0)  -->
<!DOCTYPE svg PUBLIC "-//W3C//DTD SVG 1.0//EN" "http://www.w3.org/TR/2001/REC-SVG-20010904/DTD/svg10.dtd">
<svg version="1.0" id="Layer_1" xmlns="http://www.w3.org/2000/svg" xmlns:xlink="http://www.w3.org/1999/xlink" x="0px" y="0px"
	 viewBox="0 0 54 54" enable-background="new 0 0 54 54" xml:space="preserve">
<g>
	<path fill="#EA4F2D" d="M52,26.901C51.965,13.125,40.715,1.964,26.901,2C13.127,2.036,1.965,13.287,2,27.099
		C2.035,40.873,13.289,52.038,27.1,52C40.876,51.962,52.035,40.714,52,26.901z"/>
	<path fill="#FEFEFE" d="M49.889,27.067c0.019-11.893-9.337-22.181-20.822-22.896C16.4,3.383,5.785,11.881,4.262,24.196
		C3.506,30.309,5.047,35.907,8.771,40.89c0.544,0.728,0.982,0.771,1.791,0.464c2.941-1.113,5.896-2.202,8.896-3.142
		c1.144-0.358,1.433-0.907,1.342-1.987c-0.2-2.385-1.057-4.598-1.961-6.748c-0.976-2.323-1.811-4.548-1.142-7.116
		c0.314-1.207-0.074-2.458-0.215-3.676c-0.66-5.704,2.26-9.55,7.968-10.4c4.401-0.656,8.534,1.018,10.423,4.231
		c1.083,1.842,1.461,3.81,1.112,5.929c-0.276,1.674-0.318,3.327-0.031,5.043c0.338,2.02-0.482,3.899-1.27,5.774
		c-0.967,2.301-1.865,4.649-2.363,7.113c-0.191,0.944,0.174,1.447,1.177,1.762c3.05,0.957,6.073,2.006,9.07,3.114
		c0.848,0.314,1.286,0.176,1.793-0.525C48.314,36.639,49.893,32.116,49.889,27.067z"/>
</g>
</svg>
