<?xml version="1.0" encoding="utf-8"?>
<!-- Generator: Adobe Illustrator 17.1.0, SVG Export Plug-In . SVG Version: 6.00 Build 0)  -->
<!DOCTYPE svg PUBLIC "-//W3C//DTD SVG 1.0//EN" "http://www.w3.org/TR/2001/REC-SVG-20010904/DTD/svg10.dtd">
<svg version="1.0" id="Layer_1" xmlns="http://www.w3.org/2000/svg" xmlns:xlink="http://www.w3.org/1999/xlink" x="0px" y="0px"
	 viewBox="0 0 200 200" enable-background="new 0 0 200 200" xml:space="preserve">
<path fill="#FFFFFF" d="M188.889,99.93c-0.026-48.996-39.796-88.767-88.811-88.819c-49.119-0.048-88.993,39.822-88.967,88.959
	c0.026,49,39.793,88.767,88.815,88.819C149.044,188.937,188.915,149.067,188.889,99.93z"/>
<path d="M188.889,99.93c0.026,49.137-39.844,89.007-88.963,88.959c-49.022-0.052-88.789-39.819-88.815-88.819
	c-0.026-49.137,39.848-89.007,88.967-88.959C149.093,11.163,188.863,50.933,188.889,99.93z M179.641,99.993
	C179.637,54.367,145.7,20.4,100.067,20.359c-45.615-0.041-79.656,33.907-79.707,79.504c-0.052,45.767,33.978,79.822,79.715,79.778
	C145.715,179.593,179.644,145.63,179.641,99.993z"/>
<path d="M81.978,65.967c0-1.252-0.033-2.033,0.004-2.815c0.233-4.685,3.393-7.804,8.2-7.863c6.889-0.085,13.778-0.074,20.667-0.007
	c5.337,0.052,8.259,3.048,8.467,8.467c0.022,0.581,0.081,1.163,0.156,2.219c3.13,0,6.233,0,9.341,0
	c3.741,0,7.481,0.037,11.219-0.011c2.352-0.03,3.419,1.033,3.404,3.385c-0.037,6.593,0.011,13.189-0.041,19.781
	c-0.007,0.837-0.137,2.159-0.644,2.426c-2.526,1.319-1.959,3.541-1.963,5.615c-0.011,8.859,0.019,17.715-0.011,26.574
	c-0.026,7.659-3.967,11.633-11.678,11.648c-18.996,0.037-37.993,0.041-56.985,0c-7.533-0.019-11.485-4-11.507-11.467
	c-0.03-9.548,0.037-19.093-0.07-28.641c-0.011-1.033-0.885-2.052-1.348-3.081c-0.459-1.026-1.274-2.052-1.293-3.089
	c-0.119-6.493-0.037-12.989-0.074-19.485c-0.015-2.593,1.126-3.719,3.774-3.681C68.267,66.026,74.941,65.967,81.978,65.967z
	 M124.563,92.867c-7.256,0-14.174,0-21.259,0c0,1.696-0.015,3.163,0.004,4.626c0.022,1.874-0.893,3.341-2.715,2.978
	c-1.022-0.204-2.152-1.752-2.511-2.919c-0.433-1.415-0.104-3.063-0.104-4.759c-7.211,0-14.133,0-21.1,0c0,12.467,0,24.774,0,36.989
	c16.026,0,31.804,0,47.685,0C124.563,117.378,124.563,105.207,124.563,92.867z M63.33,87.093c24.97,0,49.789,0,74.533,0
	c0-5.367,0-10.522,0-15.559c-24.978,0-49.726,0-74.533,0C63.33,76.833,63.33,81.904,63.33,87.093z M130.207,129.67
	c3.667,0.03,5.152-1.422,5.174-5.222c0.052-9.919,0.026-19.833,0.004-29.752c0-0.641-0.2-1.281-0.3-1.874c-1.726,0-3.244,0-4.878,0
	C130.207,105.23,130.207,117.452,130.207,129.67z M71.059,129.833c0-12.433,0-24.744,0-37.03c-1.77,0-3.304,0-5.041,0
	c0,11.152-0.107,22.137,0.078,33.119C66.144,128.63,68.226,129.911,71.059,129.833z M113.656,65.815
	c0.733-4.304,0.059-5.185-3.919-5.193c-5.978-0.015-11.959-0.011-17.937,0c-4.256,0.007-4.922,0.833-4.144,5.196
	C96.319,65.815,105,65.815,113.656,65.815z"/>
<path fill="#FFFFFF" d="M124.563,92.867c0,12.341,0,24.507,0,36.915c-15.881,0-31.659,0-47.685,0c0-12.219,0-24.522,0-36.989
	c6.967,0,13.889,0,21.1,0c0,1.696-0.33,3.344,0.104,4.759c0.356,1.167,1.489,2.715,2.511,2.919c1.822,0.363,2.737-1.104,2.715-2.978
	c-0.019-1.467-0.004-2.933-0.004-4.626C110.389,92.867,117.307,92.867,124.563,92.867z"/>
<path fill="#FFFFFF" d="M63.33,87.093c0-5.185,0-10.259,0-15.559c24.807,0,49.556,0,74.533,0c0,5.037,0,10.193,0,15.559
	C113.119,87.093,88.3,87.093,63.33,87.093z"/>
<path fill="#FFFFFF" d="M130.207,129.67c0-12.219,0-24.441,0-36.848c1.63,0,3.152,0,4.878,0c0.1,0.593,0.3,1.233,0.3,1.874
	c0.019,9.919,0.048,19.833-0.004,29.752C135.359,128.248,133.874,129.7,130.207,129.67z"/>
<path fill="#FFFFFF" d="M71.059,129.833c-2.833,0.074-4.919-1.204-4.963-3.911c-0.185-10.981-0.078-21.97-0.078-33.119
	c1.737,0,3.27,0,5.041,0C71.059,105.089,71.059,117.4,71.059,129.833z"/>
<path fill="#FFFFFF" d="M113.656,65.815c-8.656,0-17.337,0-26.004,0c-0.774-4.363-0.107-5.189,4.144-5.196
	c5.978-0.011,11.959-0.015,17.937,0C113.715,60.63,114.389,61.511,113.656,65.815z"/>
</svg>
